<?xml version="1.0" standalone="no"?>
<!DOCTYPE svg PUBLIC "-//W3C//DTD SVG 20010904//EN"
 "http://www.w3.org/TR/2001/REC-SVG-20010904/DTD/svg10.dtd">
<svg version="1.0" xmlns="http://www.w3.org/2000/svg"
 width="884.000000pt" height="884.000000pt" viewBox="0 0 884.000000 884.000000"
 preserveAspectRatio="xMidYMid meet">
<metadata>
Created by potrace 1.14, written by Peter Selinger 2001-2017
</metadata>
<g transform="translate(0.000000,884.000000) scale(0.100000,-0.100000)"
fill="#000000" stroke="none">
<path d="M3679 8376 c-2 -2 -24 -7 -48 -10 -65 -9 -199 -78 -257 -133 -54 -51
-121 -133 -108 -133 4 0 0 -8 -8 -17 -17 -20 -53 -120 -62 -173 -7 -41 -7
-3786 0 -3845 13 -117 88 -272 166 -343 103 -95 230 -144 370 -144 241 1 436
145 519 382 l23 65 -1 1950 c0 1073 -3 1962 -7 1978 -47 201 -216 364 -426
414 -23 5 -157 13 -161 9z m131 -361 c48 -25 77 -57 92 -103 20 -59 19 -3797
-1 -3857 -46 -137 -219 -168 -323 -58 -54 57 -52 14 -55 1098 -1 556 -3 1015
-3 1020 0 6 2 399 3 875 3 801 5 869 21 915 21 57 48 88 101 114 45 22 119 20
165 -4z"/>
<path d="M1393 6382 l-22 -3 0 -1399 1 -1400 167 1 166 1 0 909 c-1 616 2 908
9 906 10 -3 21 -56 40 -182 3 -22 8 -51 10 -65 3 -14 18 -106 35 -205 16 -99
32 -193 35 -210 3 -16 8 -46 11 -65 10 -58 67 -394 70 -415 5 -30 15 -94 25
-155 5 -30 12 -68 14 -85 4 -25 15 -92 40 -240 2 -11 9 -56 16 -100 7 -44 18
-84 25 -90 7 -6 64 -10 130 -9 101 1 120 4 131 19 7 10 11 21 9 25 -3 5 0 32
6 61 5 30 12 72 15 94 7 57 11 85 18 125 3 19 8 53 11 75 9 62 15 104 26 175
6 36 12 80 15 99 2 19 6 46 9 60 2 14 7 46 10 71 3 25 8 57 11 73 2 15 6 39 8
55 3 15 7 45 11 67 3 23 7 52 10 65 5 25 14 88 20 145 2 17 6 44 9 60 3 17 10
64 16 106 6 41 13 86 15 99 5 24 11 70 21 145 3 22 7 47 9 55 4 13 15 104 18
138 0 6 6 12 14 12 11 0 13 -158 13 -909 l0 -909 30 -4 c17 -3 33 -1 36 4 3 4
11 5 19 1 7 -5 64 -7 127 -5 l113 3 -1 1392 c-1 766 -2 1397 -3 1402 -1 11
-434 15 -445 5 -5 -5 -7 -14 -21 -110 -4 -25 -9 -52 -10 -60 -2 -8 -6 -37 -9
-65 -9 -66 -16 -113 -22 -150 -3 -16 -7 -41 -9 -55 -2 -14 -6 -38 -9 -55 -3
-16 -8 -50 -11 -75 -3 -25 -8 -56 -10 -70 -10 -63 -25 -159 -30 -195 -4 -22
-8 -51 -10 -65 -3 -14 -7 -43 -10 -65 -13 -86 -15 -101 -20 -125 -2 -14 -7
-43 -10 -65 -3 -22 -10 -67 -15 -100 -5 -33 -12 -82 -16 -110 -3 -27 -8 -59
-10 -70 -6 -29 -13 -74 -19 -120 -3 -22 -10 -69 -16 -105 -16 -97 -19 -121
-24 -165 -8 -66 -11 -79 -22 -82 -12 -4 -16 13 -33 117 -5 36 -12 76 -14 90
-3 14 -10 59 -16 100 -6 41 -14 86 -16 100 -2 14 -7 41 -10 60 -3 19 -8 49
-11 65 -3 17 -6 44 -8 60 -2 17 -13 84 -24 150 -22 135 -30 184 -37 235 -2 19
-8 60 -14 90 -5 30 -12 73 -15 94 -3 21 -8 48 -10 60 -3 12 -7 37 -9 56 -5 34
-13 91 -22 140 -7 45 -33 204 -39 245 -3 23 -8 52 -10 65 -3 14 -8 45 -11 70
-3 25 -8 60 -12 79 l-7 34 -215 1 c-118 1 -225 0 -237 -2z"/>
<path d="M4592 6382 l-42 -3 2 -1401 3 -1401 148 -1 c81 0 155 2 165 5 16 6
17 56 17 735 l0 729 210 0 210 0 0 -733 0 -732 25 -1 c93 -4 301 -1 306 4 4 4
8 2105 4 2719 l0 77 -122 1 c-68 0 -132 0 -143 0 -11 0 -32 0 -47 0 -24 0 -28
-4 -29 -27 0 -16 -1 -234 -1 -485 0 -334 -3 -458 -12 -459 -14 -1 -354 -1
-382 0 -24 1 -36 42 -24 77 4 11 4 31 -1 46 -4 15 -4 43 1 62 4 20 4 38 0 41
-4 3 -5 20 -1 37 7 32 5 92 -3 114 -2 6 -1 17 4 24 4 7 4 25 0 41 -5 15 -5 44
0 63 4 20 4 38 0 41 -4 3 -5 20 -1 37 7 32 5 92 -3 114 -2 6 -1 17 4 24 4 7 4
25 0 41 -5 15 -5 44 0 63 4 20 4 38 0 41 -4 3 -5 20 -1 37 15 70 10 73 -124
73 -66 0 -139 -1 -163 -3z"/>
<path d="M6380 6374 c-41 -7 -93 -21 -115 -30 -22 -10 -42 -18 -45 -18 -20 -3
-94 -59 -140 -106 -52 -53 -115 -158 -125 -208 -2 -12 -6 -26 -9 -31 -17 -26
-20 -199 -20 -1011 1 -874 1 -897 22 -975 23 -89 32 -114 65 -167 31 -51 109
-138 124 -138 7 0 13 -4 13 -9 0 -12 136 -77 180 -87 73 -16 187 -21 235 -10
17 3 39 8 50 10 37 7 133 56 179 91 47 36 86 72 86 79 0 3 11 16 24 30 27 30
82 138 90 179 3 15 9 39 12 55 9 38 11 1873 2 1878 -4 3 -5 10 -2 17 8 22 -43
156 -82 216 -64 98 -154 170 -263 212 -93 35 -171 41 -281 23z m129 -339 c43
-8 60 -17 93 -52 54 -58 53 -37 52 -1004 -1 -972 2 -929 -56 -991 -50 -54
-142 -71 -220 -40 -40 16 -93 77 -107 121 -8 27 -11 287 -11 913 0 956 -1 945
58 1001 58 55 105 68 191 52z"/>
<path d="M7097 2994 c-1 -1 -36 -4 -77 -7 -279 -18 -414 -211 -413 -592 0
-122 26 -260 54 -290 5 -5 9 -17 9 -27 0 -10 5 -18 10 -18 6 0 10 -6 10 -13 0
-15 80 -131 125 -182 14 -16 86 -91 158 -165 159 -162 195 -205 239 -290 68
-129 83 -249 64 -490 -12 -146 -61 -201 -175 -194 -110 7 -146 65 -167 274 -2
19 -5 130 -6 245 l-2 210 -153 0 c-146 0 -153 -1 -154 -20 -3 -60 2 -377 6
-417 3 -27 7 -72 10 -100 9 -81 43 -196 77 -261 36 -67 110 -138 173 -166 136
-60 349 -55 477 10 107 55 190 194 213 359 2 14 4 25 5 25 4 0 13 144 13 215
0 140 -10 212 -44 318 -21 66 -95 215 -110 220 -5 2 -9 9 -9 16 0 19 -96 134
-236 282 -267 282 -273 291 -279 458 -4 97 14 210 41 256 23 38 67 62 122 65
139 10 174 -83 176 -457 0 -91 5 -149 11 -151 16 -5 280 -3 282 3 1 3 6 17 12
31 5 15 7 30 4 33 -9 9 -10 69 -2 87 5 9 6 19 3 22 -3 3 -7 50 -9 104 -7 230
-40 366 -113 461 -45 60 -54 67 -127 102 -40 20 -86 32 -138 38 -42 4 -78 7
-80 6z"/>
<path d="M1421 2960 c-10 -7 -8 -2467 2 -2477 13 -12 756 -10 760 2 2 6 3 66
2 135 l-1 125 -219 1 c-121 1 -223 2 -226 3 -9 2 -8 845 1 856 5 6 79 9 192 8
100 -1 192 0 203 2 19 4 20 11 19 127 -1 68 -2 128 -3 133 -1 6 -78 10 -208
10 l-208 0 -1 402 c-1 285 2 403 10 406 6 2 106 3 222 3 l211 -1 2 132 c2 121
0 133 -16 134 -82 4 -736 3 -742 -1z"/>
<path d="M2294 2915 c3 -27 10 -75 16 -105 6 -30 12 -73 15 -95 3 -22 7 -51
10 -65 3 -14 7 -38 10 -55 3 -16 7 -41 10 -55 3 -14 8 -47 11 -75 3 -27 8 -53
10 -56 2 -4 6 -24 9 -45 3 -22 7 -50 10 -64 3 -14 8 -45 11 -70 3 -25 8 -54
11 -65 2 -11 8 -47 13 -80 6 -33 12 -71 15 -85 2 -14 12 -70 21 -125 9 -55 18
-109 20 -120 1 -11 5 -38 9 -60 3 -22 7 -51 10 -65 11 -52 15 -76 21 -120 3
-25 7 -47 9 -50 2 -3 6 -29 10 -59 4 -30 9 -63 11 -75 3 -12 7 -37 10 -56 5
-39 21 -131 29 -170 3 -14 8 -43 10 -65 3 -22 7 -51 11 -65 3 -14 7 -41 9 -60
3 -19 7 -46 10 -60 5 -23 12 -60 20 -115 2 -11 4 -20 5 -20 1 0 3 -20 5 -44 3
-25 7 -52 10 -60 4 -9 9 -35 11 -59 6 -57 8 -66 16 -72 8 -7 346 -6 352 1 6 5
14 47 21 104 3 22 10 65 15 95 5 30 12 78 16 105 3 28 8 59 10 70 3 11 7 36 9
55 6 36 15 99 20 135 9 56 27 173 31 195 2 14 6 43 9 65 3 22 7 51 10 65 3 14
7 43 10 65 3 22 7 51 10 65 3 14 8 45 10 70 3 25 8 56 10 70 3 14 7 43 10 65
3 22 8 51 10 65 8 41 14 84 20 126 13 90 16 109 21 138 3 17 7 47 9 66 3 19 6
45 9 57 2 11 7 43 11 70 4 26 9 59 11 73 3 14 7 45 9 69 3 24 7 47 9 50 3 4 8
36 11 71 4 36 8 67 10 70 2 3 7 33 10 65 4 33 9 62 10 65 2 3 6 29 10 59 4 30
9 63 11 75 3 12 7 44 10 71 3 28 8 53 11 58 5 9 14 8 -155 10 -159 2 -146 8
-157 -78 -6 -47 -11 -86 -20 -145 -2 -14 -7 -52 -10 -85 -4 -33 -11 -64 -15
-69 -5 -5 -6 -15 -3 -22 3 -7 0 -44 -6 -81 -12 -71 -17 -106 -26 -188 -4 -27
-11 -81 -16 -120 -16 -109 -21 -148 -24 -170 -1 -11 -5 -45 -9 -75 -4 -30 -9
-68 -11 -85 -2 -16 -4 -30 -5 -30 -1 0 -3 -11 -5 -25 -2 -22 -7 -69 -20 -172
-2 -16 -6 -47 -10 -70 -12 -76 -16 -108 -30 -223 -9 -75 -15 -118 -19 -140 -3
-11 -5 -36 -5 -54 -1 -20 -5 -31 -9 -25 -7 8 -14 44 -37 214 -2 14 -7 41 -10
60 -4 19 -8 46 -10 60 -7 54 -15 114 -21 144 -3 17 -8 42 -10 56 -2 14 -5 36
-7 50 -2 14 -8 50 -12 80 -4 30 -9 64 -12 75 -2 11 -6 34 -8 50 -3 17 -9 64
-15 105 -6 41 -15 98 -20 125 -6 28 -12 64 -14 80 -9 74 -18 132 -22 155 -3
14 -7 39 -10 55 -2 17 -6 39 -8 50 -3 11 -8 47 -12 80 -3 33 -7 62 -9 65 -2 3
-6 26 -10 50 -3 25 -10 70 -15 100 -10 61 -21 132 -25 168 -2 13 -6 26 -9 30
-3 3 -71 6 -151 6 l-146 1 5 -50z"/>
<path d="M3568 2960 l-23 -6 0 -1233 c0 -1087 2 -1234 15 -1240 20 -10 736 -8
746 2 4 4 8 64 8 132 1 104 -2 125 -14 126 -8 1 -109 2 -225 3 l-210 1 -1 433
c-1 305 2 432 10 433 6 1 101 2 211 3 l200 1 0 128 c0 71 -3 131 -8 134 -5 3
-100 6 -212 6 l-202 0 0 404 c0 283 3 403 11 404 6 1 106 2 221 3 l210 1 2
133 c1 72 -1 132 -5 133 -33 4 -716 3 -734 -1z"/>
<path d="M4524 2961 c-2 -2 -4 -563 -4 -1245 l0 -1241 142 1 c79 1 145 2 148
3 7 1 3 1235 -4 1439 -2 79 -3 142 0 140 4 -5 168 -501 216 -653 17 -55 35
-104 39 -109 5 -6 9 -20 9 -33 0 -13 4 -31 10 -41 5 -9 59 -172 121 -362 61
-190 115 -354 120 -365 9 -18 20 -20 124 -20 69 0 115 4 116 10 0 6 2 565 2
1243 1 815 -1 1232 -8 1233 -52 4 -259 3 -267 -2 -11 -7 -14 -868 -4 -1099 3
-69 8 -195 11 -280 3 -85 8 -163 11 -172 9 -29 -5 -21 -17 10 -6 15 -12 32
-13 37 -2 6 -6 17 -9 25 -3 8 -19 56 -36 105 -67 202 -183 541 -190 560 -5 11
-14 38 -20 60 -7 22 -16 49 -21 60 -5 11 -32 90 -60 175 -28 85 -54 162 -57
170 -3 8 -7 20 -9 25 -7 26 -108 320 -110 324 -4 5 -235 7 -240 2z"/>
<path d="M5730 2829 l0 -136 130 2 c148 1 143 4 141 -89 -2 -58 -2 -94 -1
-189 1 -37 -2 -72 -5 -77 -3 -6 -1 -10 5 -10 6 0 9 -4 6 -9 -4 -5 -6 -42 -6
-83 1 -40 0 -84 0 -98 -1 -14 -1 -32 -1 -40 0 -8 1 -53 0 -100 0 -47 0 -91 0
-97 1 -13 1 -34 1 -55 0 -7 0 -31 0 -53 0 -22 0 -56 0 -75 0 -19 0 -65 0 -103
1 -37 -2 -72 -5 -77 -3 -6 -3 -10 2 -10 4 0 7 -24 5 -52 -2 -29 -3 -66 -3 -83
1 -16 1 -60 1 -98 1 -37 -2 -72 -5 -77 -3 -6 -1 -10 5 -10 6 0 9 -4 6 -9 -4
-5 -6 -40 -6 -78 0 -37 0 -92 0 -120 -1 -69 -1 -103 0 -186 1 -37 -2 -72 -5
-77 -3 -6 -1 -10 5 -10 6 0 9 -4 6 -9 -4 -5 -6 -42 -6 -83 0 -40 0 -92 0 -115
-1 -24 3 -44 7 -44 21 -3 289 -5 299 -2 7 3 10 337 10 1108 -1 608 1 1106 4
1106 3 1 57 2 120 4 63 1 118 3 123 4 4 0 7 60 7 131 0 97 -3 130 -12 131 -7
0 -196 1 -421 2 l-407 2 0 -136z"/>
</g>
</svg>
