<?xml version="1.0" encoding="UTF-8" standalone="no"?>
<!DOCTYPE svg PUBLIC "-//W3C//DTD SVG 1.1//EN" "http://www.w3.org/Graphics/SVG/1.1/DTD/svg11.dtd">
<!-- Created with Vectornator (http://vectornator.io/) -->
<svg height="100%" stroke-miterlimit="10" style="fill-rule:nonzero;clip-rule:evenodd;stroke-linecap:round;stroke-linejoin:round;" version="1.1" viewBox="0 0 338.144 124.94" width="100%" xml:space="preserve" xmlns="http://www.w3.org/2000/svg" xmlns:xlink="http://www.w3.org/1999/xlink">
<defs>
<clipPath id="TextBounds">
<rect height="1" width="24.7069" x="130.545" y="7.91086"/>
</clipPath>
</defs>
<g id="Untitled">
<g opacity="1">
<path d="M73.6646 64.8269C73.6636 49.2619 73.6876 33.6959 73.6526 18.1319C73.6366 10.9929 67.5616 5.03592 60.4386 4.84492C53.6546 4.65992 46.4406 10.2389 46.4576 19.1299C46.5176 49.6229 46.4506 80.1159 46.5246 110.609C46.5306 112.737 46.9166 115.036 47.7846 116.959C50.6136 123.237 56.4526 125.894 63.0266 124.634C69.3396 123.423 73.7706 117.121 73.7136 111.249C73.6776 107.381 73.6566 103.513 73.6436 99.6429C73.6096 88.0389 73.6646 76.4319 73.6646 64.8269ZM64.6686 65.0119C64.6686 80.1229 64.6796 95.2349 64.6486 110.348C64.6456 111.41 64.5496 112.56 64.1386 113.517C63.3336 115.39 61.0856 116.467 59.1926 116.147C57.0606 115.788 55.1516 113.915 54.8466 111.797C54.7436 111.083 54.8086 110.344 54.8086 109.615C54.8056 79.6639 54.7936 49.7139 54.8366 19.7629C54.8386 18.4529 55.1086 17.0349 55.6636 15.8609C56.5696 13.9459 59.0386 13.0099 60.9976 13.5139C63.1726 14.0729 64.6026 15.7299 64.6446 18.0369C64.7156 21.8589 64.6646 25.6839 64.6646 29.5069C64.6646 41.3419 64.6646 53.1769 64.6646 65.0119L64.6686 65.0119" fill="#f16760" fill-rule="nonzero" opacity="1" stroke="none"/>
<path d="M21.0126 102.681C20.8326 102.676 20.6536 102.671 20.4736 102.665C17.9456 86.6949 15.4166 70.7249 12.8886 54.7509L1.03063 54.7509L1.03063 124.838L9.31763 124.838L9.31763 79.3219C9.48263 79.3129 9.64663 79.3049 9.81163 79.2969C12.3506 94.5059 14.8896 109.714 17.4306 124.939L24.1336 124.939C26.4296 109.533 28.6826 94.4059 30.9366 79.2789C31.1306 79.2969 31.3236 79.3129 31.5186 79.3309L31.5186 124.882L39.6446 124.882L39.6446 54.6929L28.3106 54.6929C25.8776 70.6909 23.4446 86.6849 21.0126 102.681" fill="#f16760" fill-rule="nonzero" opacity="1" stroke="none"/>
<path d="M99.2376 79.1499L88.7606 79.1499L88.7606 54.6969C86.7856 54.6969 85.0636 54.6829 83.3416 54.7039C82.4466 54.7139 81.5526 54.7839 80.5296 54.8329L80.5296 124.912L88.8866 124.912L88.8866 88.1189L99.4066 88.1189L99.4066 124.939L107.786 124.939L107.786 54.8369L99.2376 54.8369L99.2376 79.1499" fill="#f16760" fill-rule="nonzero" opacity="1" stroke="none"/>
<path d="M144.086 105.988C144.068 100.593 144.107 95.1959 144.108 89.7999C144.108 82.6039 144.069 75.4089 144.118 68.2149C144.175 59.7039 135.687 51.9409 125.539 55.6379C120.139 57.6039 116.915 62.6869 116.895 68.9389C116.853 82.8729 116.876 96.8079 116.901 110.742C116.903 111.732 117.098 112.727 117.264 113.709C118.486 120.971 124.677 125.659 132.253 124.849C139.008 124.126 144.209 117.957 144.127 111.385C144.105 109.586 144.093 107.787 144.086 105.988M135.101 111.218C135.067 114.812 131.738 117.06 128.49 115.77C126.661 115.044 125.585 113.617 125.308 111.664C125.194 110.859 125.247 110.029 125.247 109.21C125.241 96.0079 125.233 82.8049 125.251 69.6019C125.251 68.6159 125.293 67.5779 125.591 66.6529C126.389 64.1779 128.527 62.9449 131.122 63.2929C133.376 63.5959 135.084 65.5269 135.101 68.0579C135.149 75.2509 135.118 82.4439 135.118 89.6379C135.122 96.8309 135.169 104.024 135.101 111.218" fill="#f16760" fill-rule="nonzero" opacity="1" stroke="none"/>
<path d="M172.458 123.058L172.458 61.5482L190.841 61.5482L190.841 67.5593L179.693 67.5593L179.693 88.5985L190.247 88.5985L190.247 94.6097L179.693 94.6097L179.693 117.047L190.981 117.047L190.981 123.058L172.458 123.058Z" fill="#f16760" fill-rule="nonzero" opacity="1" stroke="#f16760" stroke-linecap="butt" stroke-linejoin="miter" stroke-width="0.7"/>
<path d="M205.485 123.058L195.245 61.5482L202.13 61.5482L206.219 87.585L209.714 110.476L209.853 110.476L212.894 87.585L216.424 61.5482L223.239 61.5482L213.907 123.058L205.485 123.058Z" fill="#f16760" fill-rule="nonzero" opacity="1" stroke="#f16760" stroke-linecap="butt" stroke-linejoin="miter" stroke-width="0.7"/>
<path d="M229.704 123.058L229.704 61.5482L248.087 61.5482L248.087 67.5593L236.939 67.5593L236.939 88.5985L247.493 88.5985L247.493 94.6097L236.939 94.6097L236.939 117.047L248.227 117.047L248.227 123.058L229.704 123.058Z" fill="#f16760" fill-rule="nonzero" opacity="1" stroke="#f16760" stroke-linecap="butt" stroke-linejoin="miter" stroke-width="0.7"/>
<path d="M256.091 123.058L256.091 61.5482L261.543 61.5482L275.802 103.417L275.068 85.6279L275.068 61.5482L281.464 61.5482L281.464 123.058L276.151 123.058L262.347 80.8399L262.766 96.3572L262.766 123.058L256.091 123.058Z" fill="#f16760" fill-rule="nonzero" opacity="1" stroke="#f16760" stroke-linecap="butt" stroke-linejoin="miter" stroke-width="0.7"/>
<path d="M294.115 123.058L294.115 67.5593L287.335 67.5593L287.335 61.5482L307.64 61.5482L307.64 67.5593L301.314 67.5593L301.314 123.058L294.115 123.058Z" fill="#f16760" fill-rule="nonzero" opacity="1" stroke="#f16760" stroke-linecap="butt" stroke-linejoin="miter" stroke-width="0.7"/>
<path d="M323.437 123.757C320.944 123.757 318.917 123.309 317.356 122.411C315.795 121.514 314.595 120.239 313.756 118.585C312.917 116.93 312.341 114.979 312.026 112.731C311.712 110.482 311.554 107.995 311.554 105.269L311.554 99.2929L318.579 99.2929L318.579 105.549C318.579 109.859 318.888 112.94 319.505 114.793C320.123 116.645 321.457 117.571 323.507 117.571C324.928 117.571 325.971 117.239 326.635 116.575C327.299 115.911 327.724 114.845 327.91 113.377C328.097 111.909 328.19 109.976 328.19 107.576C328.19 104.826 327.707 102.462 326.74 100.481C325.773 98.5007 324.381 96.6018 322.563 94.7845L318.544 90.7654C317.379 89.5771 316.238 88.2782 315.119 86.8686C314.001 85.459 313.075 83.8571 312.341 82.0631C311.607 80.2691 311.24 78.2187 311.24 75.9121C311.24 72.8133 311.566 70.1339 312.218 67.8739C312.871 65.6139 314.059 63.8664 315.783 62.6316C317.507 61.3967 319.954 60.7793 323.122 60.7793C325.615 60.7793 327.613 61.2103 329.116 62.0724C330.619 62.9345 331.749 64.1635 332.506 65.7595C333.263 67.3555 333.764 69.2485 334.009 71.4387C334.254 73.6288 334.376 76.0519 334.376 78.708L334.376 82.3427L327.456 82.3427L327.456 78.2187C327.456 75.7257 327.357 73.6463 327.159 71.9804C326.961 70.3145 326.559 69.0621 325.953 68.2234C325.348 67.3846 324.404 66.9652 323.122 66.9652C321.958 66.9652 321.008 67.2506 320.274 67.8215C319.54 68.3923 319.01 69.2718 318.684 70.4601C318.358 71.6484 318.195 73.1745 318.195 75.0384C318.195 76.6693 318.393 78.0149 318.789 79.075C319.185 80.1351 319.785 81.1195 320.589 82.0282C321.393 82.9368 322.377 84.0086 323.542 85.2434L327.736 89.6819C329.949 91.9886 331.761 94.569 333.17 97.4231C334.58 100.277 335.285 103.592 335.285 107.366C335.285 110.768 334.953 113.692 334.289 116.138C333.625 118.585 332.442 120.466 330.741 121.782C329.04 123.099 326.606 123.757 323.437 123.757Z" fill="#f16760" fill-rule="nonzero" opacity="1" stroke="#f16760" stroke-linecap="butt" stroke-linejoin="miter" stroke-width="0.7"/>
</g>
<g fill="#f16760" opacity="1" stroke="none"/>
</g>
</svg>
